<svg width="512" height="512" viewBox="0 0 512 512" fill="none" xmlns="http://www.w3.org/2000/svg">
  <rect width="512" height="512" rx="128" fill="#9333EA"/>
  <path d="M256 128C185.308 128 128 185.308 128 256C128 326.692 185.308 384 256 384C326.692 384 384 326.692 384 256C384 185.308 326.692 128 256 128ZM256 344C207.477 344 168 304.523 168 256C168 207.477 207.477 168 256 168C304.523 168 344 207.477 344 256C344 304.523 304.523 344 256 344Z" fill="white"/>
  <path d="M256 200C225.071 200 200 225.071 200 256C200 286.929 225.071 312 256 312C286.929 312 312 286.929 312 256C312 225.071 286.929 200 256 200Z" fill="white" fill-opacity="0.5"/>
</svg>
